<?xml version="1.0" encoding="UTF-8"?>
<svg width="700pt" height="700pt" version="1.1" viewBox="0 0 700 700" xmlns="http://www.w3.org/2000/svg">
 <path d="m350 0c-154.5 0-280 125.5-280 280s125.5 280 280 280 280-125.5 280-280-125.5-280-280-280zm0 23.332c141.89 0 256.67 114.78 256.67 256.67s-114.78 256.67-256.67 256.67-256.67-114.78-256.67-256.67 114.78-256.67 256.67-256.67zm-140 93.336v326.66h280v-326.66zm23.332 23.332h233.34v210h-233.34zm116.67 233.33c6.1875 0 12.125 2.4609 16.5 6.8359s6.832 10.309 6.832 16.5c0 6.1875-2.457 12.121-6.832 16.496-4.375 4.3789-10.312 6.8359-16.5 6.8359s-12.125-2.457-16.5-6.8359c-4.375-4.375-6.832-10.309-6.832-16.496 0-6.1914 2.457-12.125 6.832-16.5s10.312-6.8359 16.5-6.8359z"/>
</svg>
