<svg width="0" height="0" class="hidden">
  <symbol xmlns="http://www.w3.org/2000/svg" viewBox="0 0 48 48" id="icons8-google-drive">
    <path fill="#1e88e5" d="M38.59,39c-0.535,0.93-0.298,1.68-1.195,2.197C36.498,41.715,35.465,42,34.39,42H13.61 c-1.074,0-2.106-0.285-3.004-0.802C9.708,40.681,9.945,39.93,9.41,39l7.67-9h13.84L38.59,39z"></path>
    <path fill="#fbc02d" d="M27.463,6.999c1.073-0.002,2.104-0.716,3.001-0.198c0.897,0.519,1.66,1.27,2.197,2.201l10.39,17.996 c0.537,0.93,0.807,1.967,0.808,3.002c0.001,1.037-1.267,2.073-1.806,3.001l-11.127-3.005l-6.924-11.993L27.463,6.999z"></path>
    <path fill="#e53935" d="M43.86,30c0,1.04-0.27,2.07-0.81,3l-3.67,6.35c-0.53,0.78-1.21,1.4-1.99,1.85L30.92,30H43.86z"></path>
    <path fill="#4caf50" d="M5.947,33.001c-0.538-0.928-1.806-1.964-1.806-3c0.001-1.036,0.27-2.073,0.808-3.004l10.39-17.996 c0.537-0.93,1.3-1.682,2.196-2.2c0.897-0.519,1.929,0.195,3.002,0.197l3.459,11.009l-6.922,11.989L5.947,33.001z"></path>
    <path fill="#1565c0" d="M17.08,30l-6.47,11.2c-0.78-0.45-1.46-1.07-1.99-1.85L4.95,33c-0.54-0.93-0.81-1.96-0.81-3H17.08z"></path>
    <path fill="#2e7d32" d="M30.46,6.8L24,18L17.53,6.8c0.78-0.45,1.66-0.73,2.6-0.79L27.46,6C28.54,6,29.57,6.28,30.46,6.8z"></path>
  </symbol>
  <symbol xmlns="http://www.w3.org/2000/svg" viewBox="0 0 48 48" id="icons8-google-meet">
    <rect width="16" height="16" x="12" y="16" fill="#fff" transform="rotate(-90 20 24)"></rect>
    <polygon fill="#1e88e5" points="3,17 3,31 8,32 13,31 13,17 8,16"></polygon>
    <path fill="#4caf50" d="M37,24v14c0,1.657-1.343,3-3,3H13l-1-5l1-5h14v-7l5-1L37,24z"></path>
    <path fill="#fbc02d" d="M37,10v14H27v-7H13l-1-5l1-5h21C35.657,7,37,8.343,37,10z"></path>
    <path fill="#1565c0" d="M13,31v10H6c-1.657,0-3-1.343-3-3v-7H13z"></path>
    <polygon fill="#e53935" points="13,7 13,17 3,17"></polygon>
    <polygon fill="#2e7d32" points="38,24 37,32.45 27,24 37,15.55"></polygon>
    <path fill="#4caf50" d="M46,10.11v27.78c0,0.84-0.98,1.31-1.63,0.78L37,32.45v-16.9l7.37-6.22C45.02,8.8,46,9.27,46,10.11z"></path>
  </symbol>
  <symbol xmlns="http://www.w3.org/2000/svg" viewBox="0 0 48 48" id="icons8-google-slides">
    <linearGradient id="854G1v8zw45fnERwTyv0Za" x1="47.209" x2=".209" y1="52.361" y2="3.236" gradientUnits="userSpaceOnUse">
      <stop offset="0" stop-color="#e5a505"></stop>
      <stop offset=".118" stop-color="#eaa904"></stop>
      <stop offset=".595" stop-color="#f8b301"></stop>
      <stop offset="1" stop-color="#fdb700"></stop>
    </linearGradient>
    <path fill="url(#854G1v8zw45fnERwTyv0Za)" d="M37,45H11c-1.657,0-3-1.343-3-3V6c0-1.657,1.343-3,3-3h19l10,10v29C40,43.657,38.657,45,37,45	z"></path>
    <path d="M34,34H14V19h20V34z M18,30h12v-7H18V30z" opacity=".05"></path>
    <path d="M33.5,33.5h-19v-14h19V33.5z M17.5,30.5h13v-8h-13V30.5z" opacity=".07"></path>
    <path d="M40,14H29V3h1l10,10V14z" opacity=".05"></path>
    <path d="M40,13.5H29.5V3H30l10,10V13.5z" opacity=".07"></path>
    <linearGradient id="854G1v8zw45fnERwTyv0Zb" x1="20.049" x2="40.674" y1="-4.488" y2="19.637" gradientUnits="userSpaceOnUse">
      <stop offset="0" stop-color="#fed100"></stop>
      <stop offset="1" stop-color="#e36001"></stop>
    </linearGradient>
    <path fill="url(#854G1v8zw45fnERwTyv0Zb)" d="M40,13H30V3L40,13z"></path>
    <path fill="#f1f8e9" d="M33,33H15V20h18V33z M17,31h14v-9H17V31z"></path>
  </symbol>
  <symbol xmlns="http://www.w3.org/2000/svg" shape-rendering="geometricPrecision" text-rendering="geometricPrecision" image-rendering="optimizeQuality" fill-rule="evenodd" clip-rule="evenodd" viewBox="0 0 242423 333333" id="google-sheets-icon">
    <defs>
      <mask id="c">
        <linearGradient id="a" gradientUnits="userSpaceOnUse" x1="200294" y1="91174.8" x2="200294" y2="176113">
          <stop offset="0" stop-opacity=".02" stop-color="#fff"></stop>
          <stop offset="1" stop-opacity=".2" stop-color="#fff"></stop>
        </linearGradient>
        <path fill="url(#a)" d="M158015 84111h84558v99065h-84558z"></path>
      </mask>
      <mask id="e">
        <radialGradient id="b" gradientUnits="userSpaceOnUse" cx="0" cy="0" r="0" fx="0" fy="0">
          <stop offset="0" stop-opacity="0" stop-color="#fff"></stop>
          <stop offset="1" stop-opacity=".098" stop-color="#fff"></stop>
        </radialGradient>
        <path fill="url(#b)" d="M-150-150h242723v333633H-150z"></path>
      </mask>
      <radialGradient id="f" gradientUnits="userSpaceOnUse" cx="9696.85" cy="10000.4" r="166667" fx="9696.85" fy="10000.4">
        <stop offset="0" stop-color="#fff"></stop>
        <stop offset="1" stop-color="#fff"></stop>
      </radialGradient>
      <linearGradient id="d" gradientUnits="userSpaceOnUse" x1="200294" y1="95125.2" x2="200294" y2="172162">
        <stop offset="0" stop-color="#263138"></stop>
        <stop offset="1" stop-color="#263138"></stop>
      </linearGradient>
    </defs>
    <g fill-rule="nonzero">
      <path d="M151513 0H22729C10227 0 1 10227 1 22728v287877c0 12505 10227 22728 22728 22728h196966c12505 0 22728-10224 22728-22728V90911l-53028-37880L151513 0z" fill="#0f9c57"></path>
      <path d="M60606 162880v109853h121216V162880H60606zm53032 94698H75757v-18938h37881v18938zm0-30301H75757v-18946h37881v18946zm0-30310H75757v-18936h37881v18936zm53030 60611h-37884v-18938h37884v18938zm0-30301h-37884v-18946h37884v18946zm0-30310h-37884v-18936h37884v18936z" fill="#f0f0f0"></path>
      <path mask="url(#c)" fill="url(#d)" d="M158165 84261l84258 84245V90911z"></path>
      <path d="M151513 0v68184c0 12557 10173 22727 22727 22727h68183L151513 0z" fill="#87cdac"></path>
      <path d="M22728 0C10226 0 0 10227 0 22729v1893C0 12123 10227 1894 22728 1894h128784V1H22728z" fill="#fff" fill-opacity=".2"></path>
      <path d="M219694 331443H22728C10226 331443 0 321213 0 308715v1890c0 12505 10227 22728 22728 22728h196966c12505 0 22728-10224 22728-22728v-1890c0 12499-10224 22728-22728 22728z" fill="#263138" fill-opacity=".2"></path>
      <path d="M174239 90911c-12554 0-22727-10170-22727-22727v1893c0 12557 10173 22727 22727 22727h68183v-1893h-68183z" fill="#263138" fill-opacity=".102"></path>
      <path d="M151513 0H22729C10227 0 1 10227 1 22729v287876c0 12505 10227 22728 22728 22728h196966c12505 0 22728-10224 22728-22728V90911L151513 0z" mask="url(#e)" fill="url(#f)"></path>
    </g>
  </symbol>
  <symbol xmlns="http://www.w3.org/2000/svg" viewBox="0 0 48 48" id="icons8-google-calendar">
    <rect width="22" height="22" x="13" y="13" fill="#fff"></rect>
    <polygon fill="#1e88e5" points="25.68,20.92 26.688,22.36 28.272,21.208 28.272,29.56 30,29.56 30,18.616 28.56,18.616"></polygon>
    <path fill="#1e88e5" d="M22.943,23.745c0.625-0.574,1.013-1.37,1.013-2.249c0-1.747-1.533-3.168-3.417-3.168 c-1.602,0-2.972,1.009-3.33,2.453l1.657,0.421c0.165-0.664,0.868-1.146,1.673-1.146c0.942,0,1.709,0.646,1.709,1.44 c0,0.794-0.767,1.44-1.709,1.44h-0.997v1.728h0.997c1.081,0,1.993,0.751,1.993,1.64c0,0.904-0.866,1.64-1.931,1.64 c-0.962,0-1.784-0.61-1.914-1.418L17,26.802c0.262,1.636,1.81,2.87,3.6,2.87c2.007,0,3.64-1.511,3.64-3.368 C24.24,25.281,23.736,24.363,22.943,23.745z"></path>
    <polygon fill="#fbc02d" points="34,42 14,42 13,38 14,34 34,34 35,38"></polygon>
    <polygon fill="#4caf50" points="38,35 42,34 42,14 38,13 34,14 34,34"></polygon>
    <path fill="#1e88e5" d="M34,14l1-4l-1-4H9C7.343,6,6,7.343,6,9v25l4,1l4-1V14H34z"></path>
    <polygon fill="#e53935" points="34,34 34,42 42,34"></polygon>
    <path fill="#1565c0" d="M39,6h-5v8h8V9C42,7.343,40.657,6,39,6z"></path>
    <path fill="#1565c0" d="M9,42h5v-8H6v5C6,40.657,7.343,42,9,42z"></path>
  </symbol>
  <symbol xmlns="http://www.w3.org/2000/svg" viewBox="0 0 48 48" id="icons8-google-docs">
    <path fill="#2196f3" d="M37,45H11c-1.657,0-3-1.343-3-3V6c0-1.657,1.343-3,3-3h19l10,10v29C40,43.657,38.657,45,37,45z"></path>
    <path fill="#bbdefb" d="M40 13L30 13 30 3z"></path>
    <path fill="#1565c0" d="M30 13L40 23 40 13z"></path>
    <path fill="#e3f2fd" d="M15 23H33V25H15zM15 27H33V29H15zM15 31H33V33H15zM15 35H25V37H15z"></path>
  </symbol>
</svg>